Patient4_TMGait_0pt8_01_left_19_EMG.mot
version=1
nRows=13
nColumns=33
inDegrees=no
endheader
time	1LAddLong	2LGlutMax	3LGlutMed	4LIliopsoas	5LSemiMemb	6LBicFemLong	7LRecFem	8LVastMed	9LVastLat	10LGasMed	11LTibAnt	12lTibPost	13LPeroneusLong	14LSol	15LExtDigLong	16LFlexDigLong	17RAddLong	18RGlutMax	19RGlutMed	20RIliopsoas	21RSemiMemb	22RBicFemLong	23RRecFem	24RVastMed	25RVastLat	26RGasMed	27RTibAnt	28RTibPost	29RPeroneusLong	30RSol	31RExtDigLong	32RFlexDigLong
21.723	0.011292	-0.50613	-0.059509	-0.003204	0.000305	0.038605	-0.098114	0.012054	0.21454	-0.002441	0.063782	-0.001068	0.013275	-0.168	-0.14847	0.002441	-0.018311	-0.54398	0.59937	0.14771	-0.014954	0.036011	-0.33966	0.1561	0.20111	0.018005	-0.82489	0.005646	-2.2974	-0.41184	-0.006104	-0.016022
21.724	0.007782	-0.46249	-0.06485	0.006866	0.018158	0.042877	-0.10529	0.005493	0.20935	-0.024872	-0.028687	-0.00412	0.015259	-0.13397	-0.15503	-0.00824	-0.005035	-0.61417	0.13748	0.027161	-0.0177	0.027466	-0.28458	0.039978	-0.58334	0.021057	-0.77087	-0.003357	-1.0135	-0.20554	-0.001221	-0.005798
21.725	0.008392	-0.3331	-0.013275	-0.007782	0.005493	0.032043	-0.091095	0.005341	0.20187	-0.034027	0.10819	-0.001984	-0.007019	-0.043488	-0.13748	-0.009918	-0.003815	-0.66223	0.11002	-0.048828	-0.040131	0.007935	-0.29633	0.015717	-0.77881	0.008698	0.28244	0.000153	0.17425	-0.10071	0.001373	-0.013428
21.726	0.007629	-0.21286	-0.019379	-0.001373	-0.010223	0.023651	-0.11032	0.00351	0.21179	-0.029602	0.19302	-0.016174	-0.022583	0.018768	-0.057068	0.008698	0.012817	-0.65201	0.4895	-0.084076	-0.044556	-0.005341	-0.25162	-0.021515	-0.85907	-0.00824	0.19745	0.000305	-0.22263	0.054626	-0.001373	-0.016022
21.727	0.003662	-0.11765	-0.04715	0.026093	-0.026703	0.021057	-0.11093	0.006714	0.20142	-0.016785	0.080719	-0.000305	0.053253	-0.022888	-0.027771	0.000916	0.014648	-0.70007	0.3862	-0.11154	-0.036774	-0.017853	-0.20294	0.032349	-0.66208	-0.009766	0.14771	0	0.090179	-0.035553	-0.002899	-0.021667
21.728	0.012207	-0.033417	-0.094452	0.005646	0.005188	0.016327	-0.11444	-0.001068	0.2002	-0.000458	-0.15533	-0.003052	0.12268	-0.07782	0.025482	0.005035	0.006714	-0.7515	0.4773	-0.19608	-0.034027	0.00946	-0.17777	0.18753	-0.41428	-0.009003	-0.090942	-0.003357	0.67093	-0.15274	-0.001831	-0.020142
21.729	0.00885	0.066528	-0.017548	-0.009155	0.032043	0.031586	-0.12009	0.010223	0.18601	0.028839	-0.032959	-0.00473	0.081329	-0.09552	0.053558	-0.003204	0.002594	-0.81482	0.55283	-0.17944	-0.023956	0.020447	-0.07843	0.12116	-0.26245	-0.01297	-0.36957	-0.001831	1.4636	0.13001	-0.001373	-0.025787
21.73	0.010376	0.15396	-0.001221	-0.024109	0.009918	0.033875	-0.10376	0.005188	0.18387	0.057678	-0.16464	-0.000458	0.14465	-0.084839	0.040436	-0.009918	-0.002136	-0.76187	-0.053864	-0.026093	-0.027161	-0.007172	-0.13855	-0.01297	-0.15259	-0.007782	-0.5101	0.000305	1.7622	0.38528	-0.001984	-0.025024
21.731	0.010071	0.26382	0.03418	-0.005951	0.00473	0.04364	-0.082397	0.002747	0.1918	0.061646	-0.1561	0.000458	0.1622	-0.077057	0.075378	0.003815	-0.003662	-0.82108	-0.090332	0.15015	-0.018311	0.012054	-0.16876	-0.062866	-0.045776	-0.002441	-0.41061	-0.000458	1.0704	0.28595	-0.002899	-0.022583
21.732	0.024109	0.38498	-0.02121	0.033264	0.006409	0.032806	-0.084076	0.001221	0.15564	0.050964	-0.040588	0.008698	0.11185	-0.23422	0.16769	-0.003357	0.002441	-0.83939	0.018311	0.16235	-0.01709	0.014648	0.074463	-0.19104	-0.1207	0.003357	-0.18478	-0.001068	1.0666	0.24902	-0.001984	-0.018158
21.733	0.058594	0.47043	-0.060883	0.013428	0.021515	0.052338	-0.094299	0.010223	0.1413	-0.005493	-0.037537	0.006256	0.001068	-0.26886	0.16083	0.002441	0.003204	-0.87616	-0.069427	0.10468	-0.00824	0.027924	0.25482	-0.16159	-0.048828	-0.004272	0.094452	-0.000305	-0.30014	0.21545	-0.002136	-0.018005
21.734	0.029449	0.53604	0.071564	0.017242	0.040588	0.056305	-0.076599	0.003357	0.13702	-0.072784	-0.069885	0.002747	0.092468	-0.19226	0.045319	-0.00885	-0.005188	-0.85342	-0.26077	-0.12924	-0.00885	0.011902	0.2356	0.001373	0.012817	-0.015106	0.18509	-0.003357	0.25055	0.25009	-0.003662	-0.022583
21.735	0.047455	0.56259	0.09552	0.008545	0.014954	0.055847	-0.059662	0.007324	0.11276	-0.1297	-0.061493	0.007629	0.061188	-0.11368	-0.039215	-0.006561	0.016327	-0.87112	0.72433	-0.29831	-0.010529	0.005798	0.23132	-0.12131	-0.16769	-0.021362	0.15228	-0.000763	-0.3186	0.19943	-0.004425	-0.029297
